<?xml version="1.0" encoding="iso-8859-1"?>
<!-- Generator: Adobe Illustrator 19.0.0, SVG Export Plug-In . SVG Version: 6.00 Build 0)  -->
<svg version="1.1" id="Layer_1" xmlns="http://www.w3.org/2000/svg" xmlns:xlink="http://www.w3.org/1999/xlink" x="0px" y="0px"
	 viewBox="0 0 508.2 508.2" style="enable-background:new 0 0 508.2 508.2;" xml:space="preserve">
<path style="fill:#DF5C4E;" d="M304.5,254.15l192.8-192.8c9.2-9.2,9.2-24.4,0-33.6l-16.8-16.8c-9.2-9.2-24.4-9.2-33.6,0
	l-192.8,192.8L61.3,10.95c-9.2-9.2-24.4-9.2-33.6,0l-16.8,16.8c-9.2,9.2-9.2,24.4,0,33.6l192.8,192.8L10.9,446.95
	c-9.2,9.2-9.2,24.4,0,33.6l16.8,16.8c9.2,9.2,24.4,9.2,33.6,0l192.8-192.8l192.8,192.8c9.2,9.2,24.4,9.2,33.6,0l16.8-16.8
	c9.2-9.2,9.2-24.4,0-33.6L304.5,254.15z"/>
<path style="fill:#E36D60;" d="M84.1,61.75l170,170l170-170l22.4-22.4l9.2-9.2c4-4,10.8-4,14.8,0l7.6,7.6c4,4,4,10.8,0,14.8
	l-202,202l202,202c4,4,4,10.8,0,14.8l-7.6,7.6c-4,4-10.8,4-14.8,0l-202-202l-202,202c-4,4-10.8,4-14.8,0l-7.6-7.6
	c-4-4-4-10.8,0-14.8l202-202l-202-202c-4-4-4-10.8,0-14.8l7.6-7.6c4-4,10.8-4,14.8,0l9.2,9.2L84.1,61.75z"/>
<path d="M463.7,508.15c-7.6,0-14.4-2.8-19.6-8l-190-190l-190,190c-5.2,5.2-12.4,8-19.6,8s-14.4-2.8-19.6-8l-16.8-16.8
	c-10.8-10.8-10.8-28.4,0-39.2l190-190l-190-190c-10.8-10.8-10.8-28.4,0-39.2l16.8-16.8c10.8-10.8,28.4-10.8,39.2,0l190,190l190-190
	c10.8-10.8,28.4-10.8,39.2,0l16.8,16.8c10.8,10.8,10.8,28.4,0,39.2l-190,190l190,190c10.8,10.8,10.8,28.4,0,39.2l-16.8,16.8
	C478.1,505.35,471.3,508.15,463.7,508.15z M254.1,300.55c1.2,0,2,0.4,2.8,1.2l192.8,192.8c3.6,3.6,8.8,5.6,14,5.6s10.4-2,14-5.6
	l16.8-16.8c7.6-7.6,7.6-20.4,0-28l-192.8-192.8c-1.6-1.6-1.6-4,0-5.6l192.8-192.8c7.6-7.6,7.6-20.4,0-28l-16.8-16.8
	c-7.6-7.6-20.4-7.6-28,0l-192.8,192.8c-1.6,1.6-4,1.6-5.6,0L58.5,13.75c-7.6-7.6-20.4-7.6-28,0l-16.8,16.8c-7.6,7.6-7.6,20.4,0,28
	l192.8,192.8c1.6,1.6,1.6,4,0,5.6L13.7,449.75c-7.6,7.6-7.6,20.4,0,28l16.8,16.8c3.6,3.6,8.8,5.6,14,5.6s10.4-2,14-5.6l192.8-192.8
	C252.1,300.95,252.9,300.55,254.1,300.55z"/>
<path d="M254.1,235.75c-1.2,0-2-0.4-2.8-1.2l-170-170c-1.6-1.6-1.6-4,0-5.6s4-1.6,5.6,0l167.2,167.2l167.2-167.2
	c1.6-1.6,4-1.6,5.6,0s1.6,4,0,5.6l-170,170C256.1,235.35,255.3,235.75,254.1,235.75z"/>
<path d="M44.5,485.75c-3.6,0-7.2-1.2-10-4l-7.6-7.6c-2.8-2.8-4-6.4-4-10s1.6-7.6,4-10l199.2-200L26.9,54.95
	c-5.6-5.6-5.6-14.8,0-20.4l7.6-7.6c2.8-2.8,6.4-4,10-4l0,0c4,0,7.6,1.6,10,4l9.2,9.2c1.6,1.6,1.6,4,0,5.6s-4,1.6-5.6,0l-9.2-9.2
	c-1.2-1.2-2.8-2-4.4-2l0,0c-1.6,0-3.2,0.8-4.4,2l-7.6,7.6c-2.4,2.4-2.4,6.4,0,8.8l202,202c1.6,1.6,1.6,4,0,5.6l-202,202
	c-1.2,1.2-2,2.8-2,4.4s0.8,3.2,2,4.4l7.6,7.6c2.4,2.4,6.4,2.4,8.8,0l202-202c1.6-1.6,4-1.6,5.6,0l202,202c2.4,2.4,6.4,2.4,8.8,0
	l7.6-7.6c2.4-2.4,2.4-6.4,0-8.8l-202-202c-1.6-1.6-1.6-4,0-5.6l202-202c1.2-1.2,2-2.8,2-4.4s-0.8-3.2-2-4.4l-7.6-7.6
	c-2.4-2.4-6.4-2.4-8.8,0l-9.6,9.2c-1.6,1.6-4,1.6-5.6,0s-1.6-4,0-5.6l9.2-9.2c5.2-5.2,14.8-5.6,20.4,0l7.6,7.6c2.8,2.8,4,6.4,4,10
	c0,4-1.6,7.6-4,10l-198.4,199.6l199.2,199.2c5.6,5.6,5.6,14.8,0,20.4l-7.6,7.6c-5.6,5.6-14.8,5.6-20.4,0l-199.2-199.2L54.9,481.35
	C52.1,484.15,48.1,485.75,44.5,485.75z"/>
<g>
</g>
<g>
</g>
<g>
</g>
<g>
</g>
<g>
</g>
<g>
</g>
<g>
</g>
<g>
</g>
<g>
</g>
<g>
</g>
<g>
</g>
<g>
</g>
<g>
</g>
<g>
</g>
<g>
</g>
</svg>
